<svg xmlns="http://www.w3.org/2000/svg" width="1600" height="900" viewBox="0 0 1600 900">
  <defs>
    <linearGradient id="sky" x1="0" x2="0" y1="0" y2="1">
      <stop offset="0" stop-color="#0ea5e9" stop-opacity="0.22"/>
      <stop offset="1" stop-color="#0b1220" stop-opacity="0.05"/>
    </linearGradient>
    <radialGradient id="vignette" cx="50%" cy="35%" r="70%">
      <stop offset="0" stop-color="#000" stop-opacity="0"/>
      <stop offset="1" stop-color="#000" stop-opacity="0.28"/>
    </radialGradient>
    <linearGradient id="grass" x1="0" x2="1" y1="0" y2="1">
      <stop offset="0" stop-color="#14532d" stop-opacity="0.16"/>
      <stop offset="1" stop-color="#166534" stop-opacity="0.32"/>
    </linearGradient>
    <linearGradient id="road" x1="0" x2="1" y1="0" y2="0">
      <stop offset="0" stop-color="#0f172a" stop-opacity="0.62"/>
      <stop offset="1" stop-color="#020617" stop-opacity="0.75"/>
    </linearGradient>
    <filter id="softShadow" x="-30%" y="-30%" width="160%" height="160%">
      <feDropShadow dx="0" dy="10" stdDeviation="10" flood-color="#020617" flood-opacity="0.35"/>
    </filter>
  </defs>

  <rect width="1600" height="900" fill="#0b1220"/>
  <rect width="1600" height="900" fill="url(#sky)"/>
  <rect width="1600" height="900" fill="url(#grass)"/>

  <path d="M-80 690 C 260 520, 420 540, 620 650 S 980 860, 1240 710 S 1700 440, 1680 300" fill="none" stroke="url(#road)" stroke-width="140" stroke-linecap="round"/>
  <path d="M-60 690 C 260 520, 420 540, 620 650 S 980 860, 1240 710 S 1700 440, 1680 300" fill="none" stroke="#e2e8f0" stroke-opacity="0.22" stroke-width="6" stroke-linecap="round" stroke-dasharray="18 22"/>

  <g filter="url(#softShadow)" opacity="0.96">
    <g>
      <rect x="220" y="170" rx="16" ry="16" width="240" height="160" fill="#f8fafc"/>
      <rect x="250" y="190" rx="10" ry="10" width="80" height="60" fill="#0ea5e9" opacity="0.35"/>
      <rect x="345" y="190" rx="10" ry="10" width="90" height="120" fill="#0ea5e9" opacity="0.18"/>
      <rect x="250" y="260" rx="10" ry="10" width="80" height="50" fill="#0ea5e9" opacity="0.18"/>
    </g>
    <g>
      <rect x="420" y="290" rx="16" ry="16" width="260" height="170" fill="#f8fafc"/>
      <rect x="450" y="315" rx="10" ry="10" width="85" height="65" fill="#0ea5e9" opacity="0.35"/>
      <rect x="548" y="315" rx="10" ry="10" width="105" height="130" fill="#0ea5e9" opacity="0.18"/>
      <rect x="450" y="390" rx="10" ry="10" width="85" height="55" fill="#0ea5e9" opacity="0.18"/>
    </g>
    <g>
      <rect x="680" y="160" rx="16" ry="16" width="270" height="180" fill="#f8fafc"/>
      <rect x="710" y="190" rx="10" ry="10" width="90" height="70" fill="#0ea5e9" opacity="0.35"/>
      <rect x="812" y="190" rx="10" ry="10" width="110" height="140" fill="#0ea5e9" opacity="0.18"/>
      <rect x="710" y="270" rx="10" ry="10" width="90" height="60" fill="#0ea5e9" opacity="0.18"/>
    </g>
    <g>
      <rect x="980" y="270" rx="16" ry="16" width="280" height="175" fill="#f8fafc"/>
      <rect x="1012" y="295" rx="10" ry="10" width="95" height="70" fill="#0ea5e9" opacity="0.35"/>
      <rect x="1118" y="295" rx="10" ry="10" width="120" height="140" fill="#0ea5e9" opacity="0.18"/>
      <rect x="1012" y="376" rx="10" ry="10" width="95" height="55" fill="#0ea5e9" opacity="0.18"/>
    </g>
    <g>
      <rect x="1090" y="520" rx="16" ry="16" width="250" height="170" fill="#f8fafc"/>
      <rect x="1118" y="545" rx="10" ry="10" width="85" height="65" fill="#0ea5e9" opacity="0.35"/>
      <rect x="1210" y="545" rx="10" ry="10" width="110" height="135" fill="#0ea5e9" opacity="0.18"/>
      <rect x="1118" y="620" rx="10" ry="10" width="85" height="60" fill="#0ea5e9" opacity="0.18"/>
    </g>
    <g>
      <rect x="760" y="520" rx="16" ry="16" width="270" height="180" fill="#f8fafc"/>
      <rect x="790" y="548" rx="10" ry="10" width="90" height="70" fill="#0ea5e9" opacity="0.35"/>
      <rect x="892" y="548" rx="10" ry="10" width="115" height="145" fill="#0ea5e9" opacity="0.18"/>
      <rect x="790" y="628" rx="10" ry="10" width="90" height="65" fill="#0ea5e9" opacity="0.18"/>
    </g>
    <g>
      <rect x="360" y="560" rx="16" ry="16" width="290" height="185" fill="#f8fafc"/>
      <rect x="392" y="592" rx="10" ry="10" width="95" height="70" fill="#0ea5e9" opacity="0.35"/>
      <rect x="496" y="592" rx="10" ry="10" width="132" height="145" fill="#0ea5e9" opacity="0.18"/>
      <rect x="392" y="672" rx="10" ry="10" width="95" height="65" fill="#0ea5e9" opacity="0.18"/>
    </g>
  </g>

  <rect width="1600" height="900" fill="url(#vignette)"/>
</svg>
